<svg width="126" height="32" viewBox="0 0 126 32" fill="none" xmlns="http://www.w3.org/2000/svg">
<path d="M25.5157 17.1838C24.4782 17.112 23.4355 17.0384 22.3963 17.0367C20.4271 17.0314 18.4544 17.0664 16.4852 17.1085C15.4187 17.133 14.3539 17.1891 13.2908 17.2715C12.0024 17.3731 10.7175 17.5045 9.43251 17.6464C6.32167 17.9881 3.2535 18.5663 0.22798 19.3846C0.217742 19.3881 0.207504 19.3916 0.197266 19.3951C0.246752 19.6404 0.304771 19.8857 0.364496 20.1293C1.16993 20.166 1.97367 20.2046 2.78081 20.2361C3.52141 20.2659 4.26029 20.2869 5.00089 20.3202C6.06571 20.3675 7.12882 20.4236 8.19364 20.4674C8.95812 20.499 9.72431 20.5165 10.4888 20.548C11.6799 20.5971 12.871 20.6496 14.0604 20.6987C14.7498 20.7285 15.4392 20.7513 16.1286 20.7811C17.3197 20.8301 18.5091 20.8827 19.6984 20.93C20.439 20.9598 21.1779 20.9826 21.9185 21.0106C23.2103 21.0597 24.5004 21.1122 25.7921 21.1613C26.2426 21.1788 26.6931 21.1928 27.147 21.2051C28.1265 21.2314 29.1043 21.2576 30.0821 21.2734C30.1248 21.2752 30.1623 21.2752 30.193 21.2734C30.5787 20.124 30.8364 18.915 30.9541 17.6622C30.5685 17.6149 30.1828 17.5641 29.7937 17.529C28.3671 17.4099 26.9423 17.2837 25.5157 17.1838Z" fill="white"/>
<path d="M30.3917 11.5992C30.3422 11.5904 30.2825 11.5887 30.2108 11.5834C28.46 11.4643 26.7092 11.3346 24.9567 11.2418C23.4533 11.1647 21.9465 11.1121 20.4414 11.0911C19.1002 11.0718 17.7555 11.1068 16.4125 11.1244C15.9723 11.1296 15.5337 11.1401 15.0969 11.1664C13.8443 11.2365 12.5918 11.2926 11.341 11.396C9.64138 11.5396 7.94347 11.6973 6.24898 11.8953C4.94014 12.0495 3.63983 12.2685 2.33953 12.4788C1.616 12.5962 0.899293 12.7469 0.180882 12.8958C0.109212 13.262 0.0477803 13.6352 0 14.0119C2.00165 14.0768 30.233 14.9616 30.9872 14.9792C30.907 13.8122 30.7057 12.6803 30.3917 11.5992Z" fill="white"/>
<path d="M26.9932 5.40361C26.6758 5.38433 26.3619 5.34579 26.0445 5.33527C24.5018 5.28972 22.9592 5.23715 21.4166 5.22138C20.1999 5.20736 18.9815 5.23189 17.7665 5.25642C16.6625 5.28271 15.5584 5.29847 14.4577 5.38083C12.8588 5.50173 11.2616 5.66293 9.66435 5.83289C7.47841 6.06593 3.39319 6.93851 2.57581 7.11548C2.37445 7.4151 2.18504 7.72173 2.00586 8.03537C5.45628 8.16328 27.2867 8.92723 29.3891 8.99381C28.7543 7.68494 27.9437 6.47769 26.9932 5.40361Z" fill="white"/>
<path d="M27.0562 23.8662C25.3856 23.698 23.7116 23.4668 22.0359 23.4159C19.5291 23.3423 17.0139 23.3371 14.5088 23.5211C12.9576 23.635 11.4116 23.7997 9.86729 23.9731C7.50558 24.2377 5.1797 24.6985 2.87942 25.3013C2.82993 25.3135 2.78386 25.3276 2.73438 25.3416C2.88795 25.5624 3.04495 25.7796 3.21047 25.9916C3.55346 25.9986 3.89646 26.0144 4.23945 26.0267C4.92885 26.053 5.61825 26.0775 6.30595 26.109C7.34517 26.1563 8.3861 26.2124 9.42532 26.2562C10.2017 26.2877 10.9782 26.3053 11.7563 26.3368C13.1471 26.3964 14.5361 26.4665 15.9269 26.5243C17.0548 26.5716 18.1845 26.5996 19.3124 26.6452C20.7902 26.7048 22.268 26.7766 23.7475 26.8309C24.7986 26.8712 25.8498 26.887 26.8993 26.9238C27.6586 26.0845 28.3275 25.1629 28.8924 24.1711C28.8344 24.1536 28.7815 24.1378 28.7268 24.1291C28.1723 24.0362 27.6177 23.9223 27.0562 23.8662Z" fill="white"/>
<path d="M24.1278 2.70711C23.848 2.51262 23.5613 2.32864 23.2678 2.15517C20.9692 0.784973 18.2952 0 15.4438 0C12.5906 0 9.91662 0.784973 7.61975 2.15517C7.31259 2.3374 7.01226 2.5319 6.71875 2.7334H24.1313V2.70711H24.1278Z" fill="white"/>
<path d="M7.93349 29.9309C10.1246 31.168 12.6381 31.8794 15.3121 31.9021H15.58C18.254 31.8794 20.7676 31.168 22.9587 29.9309C23.3614 29.7049 23.7539 29.4596 24.1327 29.1968V29.167H6.7168C7.10928 29.4421 7.51541 29.6961 7.93349 29.9309Z" fill="white"/>
<path d="M47.6019 8.14453C44.8801 8.14453 42.6089 9.75829 41.672 12.3024V8.40736H38.0117V25.7346H41.672V17.5747C41.8597 15.8488 42.5218 14.4278 43.6395 13.3467C44.7556 12.2709 46.1207 11.7242 47.6975 11.7242C48.0916 11.7242 48.38 11.7593 48.5865 11.7891L48.6906 11.8048V8.21987L48.6121 8.20761C48.3067 8.16555 47.9756 8.14453 47.6019 8.14453Z" fill="white"/>
<path d="M61.984 8.67688C60.9959 8.27913 59.9908 8.07764 58.996 8.07764C58.0028 8.07764 56.9807 8.27913 55.9619 8.67688C53.6105 9.58451 51.9467 11.0984 51.0167 13.1747C49.9502 15.5244 49.9502 18.6818 51.0167 21.0332C51.9501 23.0903 53.6139 24.5919 55.9619 25.4995C56.9824 25.8797 58.0028 26.0742 58.996 26.0742C59.9891 26.0742 60.9942 25.8815 61.9823 25.4995C64.3406 24.6182 66.0146 23.1166 66.9599 21.0332C68.0265 18.6836 68.0265 15.5244 66.9599 13.1765C66.0043 11.0441 64.3764 9.57224 61.984 8.67688ZM62.5949 21.2225C61.5659 22.2124 60.3526 22.7136 58.9875 22.7136C57.6121 22.7136 56.421 22.2265 55.3476 21.2225C54.2982 20.2132 53.7658 18.8272 53.7658 17.1048C53.7658 15.3351 54.2828 13.9772 55.3459 12.9539C56.4449 11.9272 57.636 11.4295 58.9875 11.4295C60.3304 11.4295 61.5437 11.9429 62.5966 12.9539C63.6819 13.9667 64.2092 15.3246 64.2092 17.1048C64.2092 18.8623 63.6819 20.208 62.5949 21.2225Z" fill="white"/>
<path d="M77.8678 8.07767C75.8798 8.07767 73.8799 8.85738 72.2383 10.2749C70.5046 11.7713 69.4688 14.3119 69.4688 17.0716C69.4688 19.8295 70.5046 22.3702 72.2383 23.8683C73.8799 25.2858 75.8798 26.0655 77.8678 26.0655C80.6732 26.0655 82.7397 24.4518 83.494 22.9344H83.54V32.0001H87.2004V8.02686L83.465 11.1492C82.6834 9.64762 80.6357 8.07767 77.8678 8.07767ZM78.3183 22.7136C76.9208 22.7136 75.6734 22.2125 74.6137 21.2225C73.5506 20.1992 73.0335 18.8413 73.0335 17.0716C73.0335 15.3019 73.5506 13.944 74.6137 12.9207C75.6734 11.9307 76.9208 11.4296 78.3183 11.4296C79.7483 11.4296 80.994 11.9307 82.023 12.9207C83.1083 13.9334 83.6356 15.2914 83.6356 17.0716C83.6356 18.8518 83.1083 20.208 82.023 21.2225C80.994 22.2107 79.7483 22.7136 78.3183 22.7136Z" fill="white"/>
<path d="M98.1022 8.07767C96.1142 8.07767 94.1143 8.85738 92.4727 10.2749C90.7389 11.7713 89.7031 14.3119 89.7031 17.0716C89.7031 19.8295 90.7389 22.3702 92.4727 23.8683C94.1143 25.2858 96.1142 26.0655 98.1022 26.0655C100.908 26.0655 102.974 24.4518 103.728 22.9344H103.774V32.0001H107.435V8.02686L103.699 11.1492C102.919 9.64762 100.87 8.07767 98.1022 8.07767ZM98.5527 22.7136C97.1551 22.7136 95.9077 22.2125 94.848 21.2225C93.7849 20.1992 93.2679 18.8413 93.2679 17.0716C93.2679 15.3019 93.7849 13.944 94.848 12.9207C95.9077 11.9307 97.1551 11.4296 98.5527 11.4296C99.9827 11.4296 101.228 11.9307 102.259 12.9207C103.344 13.9334 103.872 15.2914 103.872 17.0716C103.872 18.8518 103.344 20.2097 102.259 21.2225C101.228 22.2107 99.9827 22.7136 98.5527 22.7136Z" fill="white"/>
<path d="M122.339 8.40703V18.7414C122.245 19.6052 121.778 20.5076 120.947 21.4239C120.153 22.3 119.114 22.7451 117.858 22.7451C115.414 22.7451 113.957 21.0542 113.957 18.2245V8.40703H110.297V18.4225C110.297 20.9088 110.923 22.8274 112.159 24.124C113.384 25.4119 114.901 26.0637 116.667 26.0637C120.165 26.0637 121.979 23.4284 122.464 22.2475L126 25.3979V8.40527H122.339V8.40703Z" fill="white"/>
</svg>
